<svg width="26" height="26" viewBox="0 0 26 26" fill="none" xmlns="http://www.w3.org/2000/svg">
<path d="M13 0C10.4288 0 7.91543 0.762436 5.77759 2.19089C3.63975 3.61935 1.97351 5.64967 0.989572 8.02511C0.00563275 10.4006 -0.251811 13.0144 0.249797 15.5362C0.751405 18.0579 1.98953 20.3743 3.80762 22.1924C5.6257 24.0105 7.94208 25.2486 10.4638 25.7502C12.9856 26.2518 15.5994 25.9944 17.9749 25.0104C20.3503 24.0265 22.3806 22.3602 23.8091 20.2224C25.2376 18.0846 26 15.5712 26 13C25.9963 9.55333 24.6254 6.24889 22.1883 3.81173C19.7511 1.37456 16.4467 0.00372784 13 0ZM13 23.8333C10.8574 23.8333 8.76286 23.198 6.98133 22.0076C5.19979 20.8172 3.81126 19.1253 2.99131 17.1457C2.17136 15.1662 1.95683 12.988 2.37483 10.8865C2.79284 8.78506 3.82461 6.85474 5.33968 5.33968C6.85475 3.82461 8.78507 2.79283 10.8865 2.37483C12.988 1.95682 15.1662 2.17136 17.1457 2.9913C19.1253 3.81125 20.8172 5.19979 22.0076 6.98132C23.198 8.76285 23.8333 10.8574 23.8333 13C23.8302 15.8722 22.6878 18.6259 20.6568 20.6568C18.6259 22.6878 15.8722 23.8302 13 23.8333Z" fill="#676767"/>
<path d="M13.7767 5.48491C13.152 5.37109 12.5099 5.39596 11.8959 5.55776C11.2818 5.71956 10.7108 6.01434 10.2233 6.42124C9.73578 6.82814 9.34365 7.33722 9.07466 7.91245C8.80566 8.48767 8.66638 9.11498 8.66667 9.75C8.66667 10.0373 8.7808 10.3129 8.98397 10.516C9.18713 10.7192 9.46268 10.8333 9.75 10.8333C10.0373 10.8333 10.3129 10.7192 10.516 10.516C10.7192 10.3129 10.8333 10.0373 10.8333 9.75C10.8331 9.43125 10.9031 9.11638 11.0385 8.82782C11.1739 8.53926 11.3713 8.28413 11.6166 8.08061C11.8619 7.8771 12.1491 7.73022 12.4577 7.65044C12.7663 7.57066 13.0887 7.55995 13.4019 7.61908C13.8299 7.70215 14.2234 7.91091 14.5321 8.21869C14.8408 8.52647 15.0508 8.9193 15.1352 9.347C15.2205 9.79593 15.1616 10.2603 14.9671 10.6738C14.7725 11.0873 14.4522 11.4286 14.0519 11.6491C13.3891 12.0331 12.8414 12.5878 12.4658 13.2554C12.0903 13.9231 11.9006 14.6792 11.9167 15.4451V16.25C11.9167 16.5373 12.0308 16.8129 12.234 17.016C12.4371 17.2192 12.7127 17.3333 13 17.3333C13.2873 17.3333 13.5629 17.2192 13.766 17.016C13.9692 16.8129 14.0833 16.5373 14.0833 16.25V15.4451C14.0697 15.0681 14.1557 14.6942 14.3326 14.361C14.5094 14.0278 14.771 13.7471 15.0908 13.5471C15.8757 13.116 16.5078 12.4523 16.9001 11.6474C17.2924 10.8424 17.4257 9.93563 17.2816 9.05182C17.1376 8.168 16.7232 7.35051 16.0956 6.71178C15.468 6.07305 14.6579 5.64445 13.7767 5.48491Z" fill="#676767"/>
<path d="M14.0833 19.5C14.0833 18.9017 13.5983 18.4167 13 18.4167C12.4017 18.4167 11.9167 18.9017 11.9167 19.5C11.9167 20.0983 12.4017 20.5833 13 20.5833C13.5983 20.5833 14.0833 20.0983 14.0833 19.5Z" fill="#676767"/>
</svg>
