<svg width="25" height="21" viewBox="0 0 25 21" fill="none" xmlns="http://www.w3.org/2000/svg">
<path d="M21.3235 0H3.67647C2.70141 0 1.76629 0.374163 1.07681 1.04018C0.387341 1.70619 0 2.6095 0 3.55139V14.9158C0 15.8577 0.387341 16.761 1.07681 17.427C1.76629 18.0931 2.70141 18.4672 3.67647 18.4672H5.88235V19.9347C5.88237 20.1275 5.93656 20.3167 6.03915 20.4821C6.14174 20.6475 6.28888 20.783 6.46488 20.8739C6.64088 20.9649 6.83915 21.0081 7.03854 20.9988C7.23792 20.9894 7.43096 20.928 7.59706 20.8211L11.2515 18.4672H21.3235C22.2986 18.4672 23.2337 18.0931 23.9232 17.427C24.6127 16.761 25 15.8577 25 14.9158V3.55139C25 2.6095 24.6127 1.70619 23.9232 1.04018C23.2337 0.374163 22.2986 0 21.3235 0ZM13.3824 8.98928L12.0397 10.4596L12.2294 12.4142C12.2471 12.5978 12.2153 12.7826 12.1371 12.9508C12.0588 13.1189 11.9368 13.2646 11.7829 13.3736C11.629 13.4827 11.4485 13.5513 11.259 13.5729C11.0695 13.5944 10.8774 13.5682 10.7015 13.4967L8.82353 12.7126L6.95882 13.4953C6.78324 13.5683 6.59104 13.596 6.40103 13.5758C6.21102 13.5555 6.02971 13.488 5.87483 13.3797C5.71995 13.2715 5.59681 13.1263 5.51744 12.9583C5.43808 12.7903 5.40521 12.6053 5.42206 12.4213L5.61323 10.4624L4.26471 8.98928C4.13837 8.85016 4.05167 8.68169 4.01312 8.50041C3.97457 8.31913 3.9855 8.13129 4.04483 7.95533C4.10417 7.77937 4.20987 7.62134 4.35155 7.49677C4.49323 7.37221 4.66602 7.28539 4.85294 7.24483L6.83676 6.81867L7.86618 5.12821C7.97223 4.97994 8.11395 4.85876 8.27916 4.77505C8.44437 4.69134 8.62815 4.6476 8.81471 4.6476C9.00127 4.6476 9.18504 4.69134 9.35025 4.77505C9.51547 4.85876 9.65718 4.97994 9.76324 5.12821L10.7926 6.82151L12.775 7.24768C12.9627 7.28638 13.1368 7.37161 13.2801 7.49499C13.4233 7.61837 13.5309 7.77566 13.5922 7.95137C13.6535 8.12709 13.6663 8.31519 13.6296 8.49717C13.5928 8.67915 13.5076 8.84874 13.3824 8.98928ZM18.3824 12.785H15.4412C15.2462 12.785 15.0591 12.7102 14.9212 12.577C14.7833 12.4438 14.7059 12.2631 14.7059 12.0747C14.7059 11.8863 14.7833 11.7057 14.9212 11.5725C15.0591 11.4393 15.2462 11.3644 15.4412 11.3644H18.3824C18.5774 11.3644 18.7644 11.4393 18.9023 11.5725C19.0402 11.7057 19.1176 11.8863 19.1176 12.0747C19.1176 12.2631 19.0402 12.4438 18.9023 12.577C18.7644 12.7102 18.5774 12.785 18.3824 12.785ZM20.5882 9.94389H15.4412C15.2462 9.94389 15.0591 9.86906 14.9212 9.73586C14.7833 9.60265 14.7059 9.42199 14.7059 9.23361C14.7059 9.04523 14.7833 8.86457 14.9212 8.73137C15.0591 8.59817 15.2462 8.52333 15.4412 8.52333H20.5882C20.7832 8.52333 20.9703 8.59817 21.1082 8.73137C21.2461 8.86457 21.3235 9.04523 21.3235 9.23361C21.3235 9.42199 21.2461 9.60265 21.1082 9.73586C20.9703 9.86906 20.7832 9.94389 20.5882 9.94389ZM20.5882 7.10278H15.4412C15.2462 7.10278 15.0591 7.02795 14.9212 6.89474C14.7833 6.76154 14.7059 6.58088 14.7059 6.3925C14.7059 6.20412 14.7833 6.02346 14.9212 5.89026C15.0591 5.75705 15.2462 5.68222 15.4412 5.68222H20.5882C20.7832 5.68222 20.9703 5.75705 21.1082 5.89026C21.2461 6.02346 21.3235 6.20412 21.3235 6.3925C21.3235 6.58088 21.2461 6.76154 21.1082 6.89474C20.9703 7.02795 20.7832 7.10278 20.5882 7.10278Z" fill="#FF5900"/>
</svg>
