<svg width="31" height="31" viewBox="0 0 31 31" fill="none" xmlns="http://www.w3.org/2000/svg">
<path d="M0 6.2C0 2.77583 2.77583 0 6.2 0H24.8C28.2242 0 31 2.77583 31 6.2V24.8C31 28.2242 28.2242 31 24.8 31H6.2C2.77583 31 0 28.2242 0 24.8V6.2Z" fill="#676767"/>
<path d="M24.1283 15.4871C24.1283 20.2452 20.2711 24.1025 15.5129 24.1025C10.7548 24.1025 6.8975 20.2452 6.8975 15.4871C6.8975 10.7289 10.7548 6.87167 15.5129 6.87167C20.2711 6.87167 24.1283 10.7289 24.1283 15.4871Z" fill="white"/>
<path d="M24.1283 15.4871C24.1283 20.2452 20.2711 24.1025 15.5129 24.1025C10.7548 24.1025 6.8975 20.2452 6.8975 15.4871C6.8975 10.7289 10.7548 6.87167 15.5129 6.87167C20.2711 6.87167 24.1283 10.7289 24.1283 15.4871Z" fill="white"/>
<path d="M10.8712 18.4194C10.8712 18.6786 10.9745 18.9273 11.1585 19.1106C11.3425 19.2939 11.5921 19.3968 11.8523 19.3968H17.2487C18.9068 19.3968 20.3197 18.3901 20.8985 16.9532L23.5942 17.6546L23.6877 17.6796L23.7868 17.7047L27.0602 18.5563C27.4505 18.5563 27.8248 16.7988 28.1008 16.5238C28.3768 16.2489 28.5319 15.8759 28.5319 15.4871C28.5319 15.0982 28.3768 14.7253 28.1008 14.4504C27.8248 14.1754 27.4505 12.4287 27.0602 12.4287L20.8985 14.0209C20.3197 12.5841 18.9068 11.5773 17.2487 11.5773H11.8523C11.5921 11.5773 11.3425 11.6803 11.1585 11.8636C10.9745 12.0469 10.8712 12.2955 10.8712 12.5548C10.8712 12.814 10.9745 13.0626 11.1585 13.2459C11.3425 13.4292 11.5921 13.5322 11.8523 13.5322H15.7769C15.907 13.5322 16.0318 13.5837 16.1238 13.6753C16.2158 13.767 16.2675 13.8913 16.2675 14.0209C16.2675 14.1505 16.2158 14.2748 16.1238 14.3665C16.0318 14.4582 15.907 14.5096 15.7769 14.5096H11.8523C11.5921 14.5096 11.3425 14.6126 11.1585 14.7959C10.9745 14.9792 10.8712 15.2278 10.8712 15.4871C10.8712 15.7463 10.9745 15.9949 11.1585 16.1782C11.3425 16.3615 11.5921 16.4645 11.8523 16.4645H15.7769C15.907 16.4645 16.0318 16.516 16.1238 16.6077C16.2158 16.6993 16.2675 16.8236 16.2675 16.9532C16.2675 17.0829 16.2158 17.2072 16.1238 17.2988C16.0318 17.3905 15.907 17.442 15.7769 17.442H11.8523C11.5921 17.442 11.3425 17.5449 11.1585 17.7282C10.9745 17.9116 10.8712 18.1602 10.8712 18.4194Z" fill="#676767"/>
</svg>
