<svg width="26" height="25" viewBox="0 0 26 25" fill="none" xmlns="http://www.w3.org/2000/svg">
<path d="M24.5718 16.1189L23.4401 16.6848L22.3084 16.1189C22.207 16.0681 22.0952 16.0417 21.9818 16.0417C21.8684 16.0417 21.7565 16.0681 21.6551 16.1189L20.5234 16.6848L19.7943 16.3202V0.729142C19.7943 0.604799 19.7625 0.482522 19.7019 0.373932C19.6413 0.265343 19.554 0.174049 19.4482 0.108726C19.3424 0.043403 19.2216 0.0062216 19.0974 0.000715554C18.9732 -0.00479049 18.8496 0.0215614 18.7384 0.0772673L17.6068 0.643101L16.4751 0.0772673C16.3737 0.0264568 16.2619 0 16.1484 0C16.035 0 15.9232 0.0264568 15.8218 0.0772673L14.6901 0.643101L13.5584 0.0772673C13.457 0.0264568 13.3452 0 13.2318 0C13.1184 0 13.0065 0.0264568 12.9051 0.0772673L11.7734 0.643101L10.6418 0.0772673C10.5404 0.0264568 10.4285 0 10.3151 0C10.2017 0 10.0898 0.0264568 9.98844 0.0772673L8.85677 0.643101L7.7251 0.0772673C7.62371 0.0264568 7.51185 0 7.39844 0C7.28502 0 7.17317 0.0264568 7.07177 0.0772673L5.9401 0.643101L4.80844 0.0772673C4.70704 0.0264568 4.59519 0 4.48177 0C4.36835 0 4.2565 0.0264568 4.1551 0.0772673L3.02344 0.643101L1.89177 0.0772673C1.7806 0.0215614 1.65704 -0.00479049 1.53282 0.000715554C1.40859 0.0062216 1.28784 0.043403 1.18204 0.108726C1.07624 0.174049 0.988899 0.265343 0.928321 0.373932C0.867744 0.482522 0.835942 0.604799 0.835938 0.729142V21.1458C0.835938 22.1127 1.22005 23.0401 1.90378 23.7238C2.5875 24.4075 3.51484 24.7916 4.48177 24.7916H21.9818C22.9487 24.7916 23.876 24.4075 24.5598 23.7238C25.2435 23.0401 25.6276 22.1127 25.6276 21.1458V16.7708C25.6276 16.6465 25.5958 16.5242 25.5352 16.4156C25.4746 16.307 25.3873 16.2157 25.2815 16.1504C25.1757 16.0851 25.0549 16.0479 24.9307 16.0424C24.8065 16.0369 24.6829 16.0632 24.5718 16.1189ZM10.3151 8.74998C10.3127 9.39472 10.0967 10.0205 9.70093 10.5295C9.30515 11.0384 8.75188 11.4019 8.1276 11.5631V18.2291C8.1276 18.4225 8.05078 18.608 7.91404 18.7447C7.77729 18.8815 7.59182 18.9583 7.39844 18.9583C7.20505 18.9583 7.01958 18.8815 6.88284 18.7447C6.74609 18.608 6.66927 18.4225 6.66927 18.2291V11.5631C6.045 11.4019 5.49173 11.0384 5.09595 10.5295C4.70017 10.0205 4.48419 9.39472 4.48177 8.74998V6.56248C4.48177 6.36909 4.55859 6.18362 4.69534 6.04688C4.83208 5.91013 5.01755 5.83331 5.21094 5.83331C5.40432 5.83331 5.58979 5.91013 5.72654 6.04688C5.86328 6.18362 5.9401 6.36909 5.9401 6.56248V8.74998C5.943 9.00146 6.01188 9.24777 6.13984 9.46428C6.2678 9.68079 6.45036 9.85991 6.66927 9.98372V6.56248C6.66927 6.36909 6.74609 6.18362 6.88284 6.04688C7.01958 5.91013 7.20505 5.83331 7.39844 5.83331C7.59182 5.83331 7.77729 5.91013 7.91404 6.04688C8.05078 6.18362 8.1276 6.36909 8.1276 6.56248V9.98372C8.34651 9.85991 8.52907 9.68079 8.65703 9.46428C8.785 9.24777 8.85387 9.00146 8.85677 8.74998V6.56248C8.85677 6.36909 8.93359 6.18362 9.07034 6.04688C9.20708 5.91013 9.39255 5.83331 9.58594 5.83331C9.77932 5.83331 9.96479 5.91013 10.1015 6.04688C10.2383 6.18362 10.3151 6.36909 10.3151 6.56248V8.74998ZM15.3536 14.6227L13.2318 15.1535V18.2291C13.2318 18.4225 13.1549 18.608 13.0182 18.7447C12.8815 18.8815 12.696 18.9583 12.5026 18.9583C12.3092 18.9583 12.1237 18.8815 11.987 18.7447C11.8503 18.608 11.7734 18.4225 11.7734 18.2291V6.56248C11.7732 6.41807 11.8158 6.27684 11.8959 6.15669C11.976 6.03654 12.09 5.94288 12.2234 5.88758C12.3568 5.83228 12.5036 5.81784 12.6452 5.84609C12.7868 5.87433 12.9169 5.94399 13.0189 6.04623C14.0143 7.03636 14.8034 8.2141 15.3406 9.51128C15.8778 10.8085 16.1524 12.1993 16.1484 13.6033C16.1489 13.8376 16.0709 14.0653 15.9268 14.25C15.7827 14.4348 15.581 14.566 15.3536 14.6227ZM24.1693 21.1458C24.1693 21.726 23.9388 22.2824 23.5286 22.6926C23.1183 23.1028 22.5619 23.3333 21.9818 23.3333C21.4016 23.3333 20.8452 23.1028 20.435 22.6926C20.0247 22.2824 19.7943 21.726 19.7943 21.1458V17.9506L20.1968 18.1518C20.2982 18.2027 20.41 18.2291 20.5234 18.2291C20.6369 18.2291 20.7487 18.2027 20.8501 18.1518L21.9818 17.586L23.1134 18.1518C23.2148 18.2027 23.3267 18.2291 23.4401 18.2291C23.5535 18.2291 23.6654 18.2027 23.7668 18.1518L24.1693 17.9506V21.1458Z" fill="#676767"/>
</svg>
