<svg width="19" height="22" viewBox="0 0 19 22" fill="none" xmlns="http://www.w3.org/2000/svg">
<path d="M3.74265 7.33403C3.14645 7.33399 2.55886 7.47351 2.02883 7.74096C1.4988 8.00842 1.04166 8.39607 0.695484 8.87163C0.349306 9.34719 0.12411 9.89691 0.0386482 10.475C-0.0468132 11.0531 0.00993399 11.6428 0.204164 12.195C0.398394 12.7473 0.724486 13.2461 1.15528 13.6499C1.58608 14.0537 2.10911 14.3508 2.68082 14.5165C3.25253 14.6822 3.85638 14.7117 4.44207 14.6024C5.02775 14.4932 5.57833 14.2485 6.04796 13.8887L6.12626 13.9496L11.5729 17.6861C11.4112 18.5691 11.5856 19.4796 12.063 20.2452C12.5405 21.0108 13.2879 21.5783 14.1637 21.8402C15.0396 22.1022 15.983 22.0404 16.8155 21.6667C17.648 21.2929 18.3117 20.6331 18.681 19.8121C19.0503 18.9911 19.0996 18.066 18.8194 17.2118C18.5393 16.3577 17.9492 15.6338 17.161 15.1772C16.3727 14.7207 15.4409 14.5631 14.542 14.7344C13.6431 14.9057 12.8395 15.3939 12.2833 16.1066L7.12576 12.5698C7.35606 12.0949 7.48503 11.5624 7.48503 11.0006C7.48503 10.4387 7.35606 9.90625 7.12576 9.43129L12.2845 5.89337C12.8407 6.60612 13.6443 7.09435 14.5431 7.26563C15.442 7.43691 16.3738 7.27935 17.1621 6.82278C17.9504 6.36621 18.5405 5.64232 18.8206 4.78816C19.1007 3.93399 19.0515 3.00885 18.6822 2.18787C18.3129 1.36689 17.6491 0.707069 16.8167 0.333314C15.9842 -0.0404403 15.0407 -0.102181 14.1649 0.159781C13.2891 0.421743 12.5417 0.989225 12.0642 1.75479C11.5867 2.52035 11.4123 3.43086 11.574 4.31394L6.12626 8.05267L6.04796 8.11246C5.3902 7.60734 4.57838 7.33322 3.74265 7.33403Z" fill="#B1B1B1"/>
</svg>
