<svg width="27" height="28" viewBox="0 0 27 28" fill="none" xmlns="http://www.w3.org/2000/svg">
<path d="M17.5664 19.2609L17.5008 16.9367C17.993 16.8438 18.682 16.0125 18.9609 15.5695L18.0203 13.4586C17.5008 13.3766 16.4234 13.3273 16.0242 13.6336L14.3398 12.0312C14.6188 11.6211 14.5203 10.5492 14.4 10.0406L12.2398 9.21484C11.8188 9.51562 11.0258 10.2484 10.9602 10.7461L8.63594 10.8062C8.54297 10.3141 7.70625 9.63594 7.26875 9.35156L5.15781 10.2922C5.07578 10.8117 5.02656 11.8891 5.33281 12.2883L3.73594 13.9727C3.32031 13.6938 2.24844 13.7977 1.73984 13.9125L0.914062 16.0672C1.21484 16.4992 1.94766 17.2812 2.43984 17.3523L2.50547 19.6766C2.01875 19.775 1.33516 20.6008 1.05078 21.0437L1.99688 23.1547C2.51094 23.2367 3.58828 23.2805 3.9875 22.9852L5.67188 24.5766C5.39297 24.9867 5.49688 26.0641 5.61172 26.5727L7.76641 27.3984C8.19297 27.0922 8.98594 26.3594 9.05156 25.8672L11.3758 25.8016C11.4742 26.2992 12.3 26.9773 12.7484 27.2563L14.8539 26.3211C14.9414 25.7961 14.9797 24.7242 14.6844 24.325L16.2758 22.6352C16.6914 22.9195 17.7633 22.8156 18.2773 22.7008L19.0977 20.5406C18.7914 20.1195 18.0641 19.332 17.5664 19.2609ZM12.4695 19.2445C12.2835 19.7323 11.957 20.154 11.5313 20.4563C11.1056 20.7585 10.5998 20.9278 10.0779 20.9426C9.55606 20.9574 9.04151 20.8171 8.59936 20.5395C8.15721 20.2618 7.80732 19.8593 7.59393 19.3828C7.38055 18.9063 7.31325 18.3773 7.40055 17.8625C7.48784 17.3478 7.72582 16.8705 8.08438 16.491C8.44294 16.1115 8.90598 15.8469 9.41494 15.7306C9.92391 15.6142 10.4559 15.6515 10.9438 15.8375C11.268 15.9606 11.5647 16.1465 11.8169 16.3845C12.0691 16.6225 12.2719 16.9079 12.4137 17.2244C12.5554 17.5409 12.6333 17.8822 12.6429 18.2289C12.6525 18.5755 12.5936 18.9207 12.4695 19.2445ZM26.0813 4.21641C25.8242 4.00313 25.2172 3.62578 24.9164 3.72422L23.9922 2.14922C24.2219 1.93594 24.1891 1.21953 24.1289 0.896875L22.5484 0C22.2367 0.114844 21.6078 0.453906 21.5422 0.760156L19.7156 0.776563C19.6445 0.470313 19.0102 0.142188 18.6984 0.0273439L17.1344 0.951562C17.0797 1.27422 17.0578 1.99062 17.2875 2.20391L16.3906 3.78984C16.0844 3.69688 15.4828 4.08516 15.2313 4.29844L15.2477 6.11406C15.5047 6.32734 16.1117 6.69922 16.4125 6.60625L17.3367 8.18125C17.107 8.39453 17.1398 9.11094 17.2 9.43359L18.7805 10.3305C19.0867 10.2156 19.7156 9.87656 19.7867 9.57031L21.6078 9.55391C21.6844 9.86016 22.3188 10.1883 22.6305 10.3031L24.1945 9.37891C24.2492 9.05078 24.2711 8.33984 24.0359 8.12656L24.9383 6.54063C25.2391 6.62813 25.8406 6.24531 26.0922 6.03203L26.0813 4.21641ZM20.6617 6.59531C20.3791 6.59477 20.103 6.51051 19.8682 6.35316C19.6335 6.19582 19.4506 5.97244 19.3427 5.71124C19.2348 5.45004 19.2067 5.16272 19.262 4.88557C19.3173 4.60842 19.4534 4.35385 19.6532 4.15402C19.8531 3.95418 20.1076 3.81804 20.3848 3.76277C20.6619 3.7075 20.9493 3.73559 21.2105 3.84349C21.4717 3.95139 21.695 4.13427 21.8524 4.36902C22.0097 4.60378 22.094 4.87989 22.0945 5.1625C22.095 5.35078 22.0582 5.53729 21.9863 5.71133C21.9145 5.88536 21.809 6.04348 21.6758 6.17662C21.5427 6.30975 21.3846 6.41528 21.2105 6.48713C21.0365 6.55898 20.85 6.59575 20.6617 6.59531Z" fill="#676767"/>
</svg>
