<svg width="40" height="40" viewBox="0 0 40 40" fill="none" xmlns="http://www.w3.org/2000/svg">
<path d="M10.2852 30.0837C10.2852 32.9717 16.8022 34.2863 22.8566 34.2863C28.911 34.2863 35.428 32.9717 35.428 30.0837C35.428 27.7908 31.4705 26.7553 28.6193 26.3081L30.5671 24.3682C32.0909 22.8401 33.1286 20.8932 33.5491 18.7736C33.9696 16.654 33.7539 14.4569 32.9293 12.4603C32.1047 10.4636 30.7082 8.75707 28.9165 7.55639C27.1247 6.35571 25.0182 5.71484 22.8633 5.71484C20.7084 5.71484 18.6019 6.35571 16.8101 7.55639C15.0184 8.75707 13.6219 10.4636 12.7973 12.4603C11.9727 14.4569 11.757 16.654 12.1775 18.7736C12.5979 20.8932 13.6357 22.8401 15.1595 24.3682L17.1005 26.3148C14.2426 26.7553 10.2852 27.7908 10.2852 30.0837ZM24.5328 12.4329C24.5328 12.2768 24.5761 12.1238 24.6579 11.991C24.7398 11.8582 24.8569 11.7509 24.9961 11.6811C25.1353 11.6113 25.2911 11.5818 25.4461 11.5958C25.6012 11.6098 25.7492 11.6668 25.8737 11.7605C26.9116 12.5414 27.7733 13.5332 28.4027 14.671C29.0321 15.8089 29.4149 17.0671 29.5261 18.3636C29.563 18.7618 29.4559 19.1601 29.2246 19.4859C28.9933 19.8117 28.653 20.0434 28.2657 20.1387L26.209 20.6548V22.5191C26.209 22.742 26.1207 22.9558 25.9635 23.1134C25.8063 23.271 25.5931 23.3596 25.3709 23.3596C25.1486 23.3596 24.9354 23.271 24.7782 23.1134C24.6211 22.9558 24.5328 22.742 24.5328 22.5191V12.4329ZM16.9899 14.1139V12.4329C16.9899 12.21 17.0782 11.9962 17.2354 11.8386C17.3926 11.6809 17.6057 11.5924 17.828 11.5924C18.0503 11.5924 18.2635 11.6809 18.4206 11.8386C18.5778 11.9962 18.6661 12.21 18.6661 12.4329V14.1139C18.6694 14.4038 18.7486 14.6877 18.8957 14.9373C19.0428 15.1869 19.2526 15.3933 19.5042 15.5361V12.4329C19.5042 12.21 19.5925 11.9962 19.7497 11.8386C19.9068 11.6809 20.12 11.5924 20.3423 11.5924C20.5646 11.5924 20.7777 11.6809 20.9349 11.8386C21.0921 11.9962 21.1804 12.21 21.1804 12.4329V15.5361C21.432 15.3933 21.6418 15.1869 21.7889 14.9373C21.936 14.6877 22.0152 14.4038 22.0185 14.1139V12.4329C22.0185 12.21 22.1068 11.9962 22.264 11.8386C22.4211 11.6809 22.6343 11.5924 22.8566 11.5924C23.0789 11.5924 23.292 11.6809 23.4492 11.8386C23.6064 11.9962 23.6947 12.21 23.6947 12.4329V14.1139C23.6919 14.8571 23.4437 15.5784 22.9888 16.1651C22.5338 16.7518 21.8979 17.1708 21.1804 17.3566V22.5191C21.1804 22.742 21.0921 22.9558 20.9349 23.1134C20.7777 23.271 20.5646 23.3596 20.3423 23.3596C20.12 23.3596 19.9068 23.271 19.7497 23.1134C19.5925 22.9558 19.5042 22.742 19.5042 22.5191V17.3566C18.7867 17.1708 18.1507 16.7518 17.6958 16.1651C17.2409 15.5784 16.9927 14.8571 16.9899 14.1139ZM18.589 27.8076L21.0781 30.3056C21.3116 30.5399 21.5889 30.7258 21.894 30.8526C22.1992 30.9794 22.5263 31.0447 22.8566 31.0447C23.1869 31.0447 23.514 30.9794 23.8191 30.8526C24.1243 30.7258 24.4015 30.5399 24.635 30.3056L27.1242 27.8076C31.7303 28.3422 33.7518 29.5592 33.7518 30.0837C33.7518 30.8368 30.0458 32.6052 22.8566 32.6052C15.6674 32.6052 11.9613 30.8368 11.9613 30.0837C11.9613 29.5592 13.9828 28.3422 18.589 27.8076Z" fill="#676767"/>
</svg>
