<svg width="26" height="21" viewBox="0 0 26 21" fill="none" xmlns="http://www.w3.org/2000/svg">
<path d="M0 15.75C0 16.3467 0.237053 16.919 0.659009 17.341C1.08097 17.7629 1.65326 18 2.25 18H3.0765C3.24864 18.8477 3.70855 19.6099 4.37831 20.1573C5.04807 20.7047 5.88648 21.0038 6.7515 21.0038C7.61652 21.0038 8.45493 20.7047 9.12469 20.1573C9.79445 19.6099 10.2544 18.8477 10.4265 18H15.15C16.1678 17.9929 17.1614 17.689 18.009 17.1255C18.009 17.1675 17.997 17.208 17.997 17.25C17.9965 18.0569 18.2562 18.8425 18.7377 19.49C19.2192 20.1376 19.8967 20.6125 20.6697 20.8444C21.4426 21.0762 22.2696 21.0525 23.028 20.7768C23.7864 20.5012 24.4357 19.9883 24.8793 19.3143C25.323 18.6402 25.5374 17.8411 25.4907 17.0355C25.444 16.2299 25.1388 15.4609 24.6202 14.8426C24.1017 14.2244 23.3975 13.7899 22.6124 13.6037C21.8272 13.4174 21.003 13.4895 20.262 13.809C20.3885 13.2483 20.421 12.6704 20.358 12.099L19.7775 7.449C19.9327 7.48296 20.0911 7.50006 20.25 7.5H21C21.3978 7.5 21.7794 7.34196 22.0607 7.06066C22.342 6.77936 22.5 6.39783 22.5 6V4.5C22.5 4.10218 22.342 3.72064 22.0607 3.43934C21.7794 3.15804 21.3978 3 21 3H20.25C19.9025 3.00162 19.56 3.08373 19.2496 3.23988C18.9391 3.39603 18.669 3.62197 18.4605 3.9L18.219 3.6585C17.7962 3.2385 17.225 3.00192 16.629 3H15.75C15.5511 3 15.3603 3.07902 15.2197 3.21967C15.079 3.36032 15 3.55109 15 3.75C15 3.94891 15.079 4.13968 15.2197 4.28033C15.3603 4.42098 15.5511 4.5 15.75 4.5H16.629C16.8275 4.50004 17.0179 4.5788 17.1585 4.719L18.0345 5.595C18.057 5.7345 18.5955 10.062 18.873 12.285C18.939 12.8128 18.8919 13.3485 18.7349 13.8567C18.5779 14.3649 18.3147 14.8339 17.9625 15.2325C17.6104 15.6312 17.1776 15.9504 16.6926 16.1689C16.2077 16.3874 15.6819 16.5003 15.15 16.5H14.865L13.5 9.6765V8.25C13.5 7.65326 13.2629 7.08097 12.841 6.65901C12.419 6.23705 11.8467 6 11.25 6H8.25V2.25C8.25 1.65326 8.01295 1.08097 7.59099 0.65901C7.16903 0.237053 6.59674 0 6 0H2.25C1.65326 0 1.08097 0.237053 0.659009 0.65901C0.237053 1.08097 0 1.65326 0 2.25V8.25C0 8.84674 0.237053 9.41903 0.659009 9.84099C1.08097 10.2629 1.65326 10.5 2.25 10.5H2.559C1.7646 11.1259 1.12184 11.9231 0.678731 12.8322C0.23562 13.7412 0.00360151 14.7387 0 15.75ZM21.75 15C22.195 15 22.63 15.132 23 15.3792C23.37 15.6264 23.6584 15.9778 23.8287 16.389C23.999 16.8001 24.0436 17.2525 23.9568 17.689C23.87 18.1254 23.6557 18.5263 23.341 18.841C23.0263 19.1557 22.6254 19.37 22.189 19.4568C21.7525 19.5436 21.3001 19.499 20.889 19.3287C20.4778 19.1584 20.1264 18.87 19.8792 18.5C19.632 18.13 19.5 17.695 19.5 17.25C19.5 16.6533 19.7371 16.081 20.159 15.659C20.581 15.2371 21.1533 15 21.75 15ZM8.25 7.5H11.25C11.4489 7.5 11.6397 7.57902 11.7803 7.71967C11.921 7.86032 12 8.05109 12 8.25V9H8.25V7.5ZM8.862 18C8.70926 18.4384 8.42388 18.8184 8.04544 19.0873C7.667 19.3562 7.21425 19.5007 6.75 19.5007C6.28575 19.5007 5.833 19.3562 5.45456 19.0873C5.07612 18.8184 4.79074 18.4384 4.638 18H8.862ZM1.5 2.25C1.5 2.05109 1.57902 1.86032 1.71967 1.71967C1.86032 1.57902 2.05109 1.5 2.25 1.5H6C6.19891 1.5 6.38968 1.57902 6.53033 1.71967C6.67098 1.86032 6.75 2.05109 6.75 2.25V3H1.5V2.25ZM1.5 4.5H6.75V5.9775H1.5V4.5ZM2.25 9C2.05109 9 1.86032 8.92098 1.71967 8.78033C1.57902 8.63968 1.5 8.44891 1.5 8.25V7.4775H6.75V9H2.25Z" fill="#676767"/>
</svg>
