<svg width="22" height="22" viewBox="0 0 22 22" fill="none" xmlns="http://www.w3.org/2000/svg">
<path d="M17.1013 0.852499L5.92533 12.0285C5.49848 12.453 5.16008 12.958 4.92972 13.5143C4.69937 14.0705 4.58163 14.6669 4.58333 15.2689V16.5C4.58333 16.7431 4.67991 16.9763 4.85182 17.1482C5.02372 17.3201 5.25688 17.4167 5.5 17.4167H6.73108C7.33311 17.4184 7.9295 17.3006 8.48572 17.0703C9.04194 16.8399 9.54694 16.5015 9.97149 16.0746L21.1475 4.89866C21.6832 4.36165 21.984 3.6341 21.984 2.87558C21.984 2.11706 21.6832 1.38951 21.1475 0.852499C20.6027 0.331735 19.8781 0.0411119 19.1244 0.0411119C18.3707 0.0411119 17.6461 0.331735 17.1013 0.852499ZM19.8513 3.6025L8.67533 14.7785C8.15844 15.2922 7.45983 15.5814 6.73108 15.5833H6.41666V15.2689C6.41857 14.5401 6.70776 13.8415 7.22149 13.3247L18.3975 2.14866C18.5933 1.96162 18.8536 1.85725 19.1244 1.85725C19.3952 1.85725 19.6555 1.96162 19.8513 2.14866C20.0438 2.34164 20.1518 2.60305 20.1518 2.87558C20.1518 3.14811 20.0438 3.40952 19.8513 3.6025Z" fill="#FF5900"/>
<path d="M21.0833 8.23074C20.8402 8.23074 20.607 8.32732 20.4351 8.49923C20.2632 8.67114 20.1667 8.90429 20.1667 9.14741V13.75H16.5C15.7706 13.75 15.0712 14.0397 14.5554 14.5554C14.0397 15.0712 13.75 15.7706 13.75 16.5V20.1666H4.58333C3.85399 20.1666 3.15451 19.8769 2.63879 19.3612C2.12306 18.8455 1.83333 18.146 1.83333 17.4167V4.58333C1.83333 3.85398 2.12306 3.15451 2.63879 2.63879C3.15451 2.12306 3.85399 1.83333 4.58333 1.83333H12.8718C13.1149 1.83333 13.3481 1.73675 13.52 1.56485C13.6919 1.39294 13.7885 1.15978 13.7885 0.916666C13.7885 0.673551 13.6919 0.440393 13.52 0.268485C13.3481 0.0965771 13.1149 0 12.8718 0H4.58333C3.3682 0.00145553 2.20326 0.484808 1.34403 1.34403C0.484808 2.20326 0.00145554 3.3682 0 4.58333V17.4167C0.00145554 18.6318 0.484808 19.7967 1.34403 20.6559C2.20326 21.5152 3.3682 21.9985 4.58333 22H14.9811C15.5832 22.0017 16.1798 21.884 16.7362 21.6536C17.2925 21.4233 17.7977 21.0849 18.2224 20.658L20.6571 18.2215C21.084 17.797 21.4225 17.292 21.653 16.7358C21.8835 16.1796 22.0015 15.5832 22 14.9811V9.14741C22 8.90429 21.9034 8.67114 21.7315 8.49923C21.5596 8.32732 21.3264 8.23074 21.0833 8.23074ZM16.9262 19.3618C16.5578 19.7294 16.0918 19.9839 15.5833 20.0951V16.5C15.5833 16.2569 15.6799 16.0237 15.8518 15.8518C16.0237 15.6799 16.2569 15.5833 16.5 15.5833H20.0979C19.9845 16.0907 19.7303 16.5558 19.3646 16.9253L16.9262 19.3618Z" fill="#FF5900"/>
</svg>
