<svg width="12" height="12" viewBox="0 0 12 12" fill="none" xmlns="http://www.w3.org/2000/svg">
<path d="M11.5 6.5H10V6.25C10 5.8365 9.6635 5.5 9.25 5.5H8.25C7.8365 5.5 7.5 5.8365 7.5 6.25V6.5H6C5.7235 6.5 5.5 6.7235 5.5 7C5.5 7.2765 5.7235 7.5 6 7.5V10C6 11.103 6.897 12 8 12H9.5C10.603 12 11.5 11.103 11.5 10V7.5C11.7765 7.5 12 7.2765 12 7C12 6.7235 11.7765 6.5 11.5 6.5ZM10.5 10C10.5 10.5515 10.0515 11 9.5 11H8C7.4485 11 7 10.5515 7 10V7.5H10.5V10ZM4.95 9.1615C4.695 9.6585 4.161 10 3.544 10H1.456C0.839 10 0.305 9.658 0.05 9.1615C-0.106 8.8575 0.124 8.5 0.478 8.5H4.5225C4.8765 8.5 5.106 8.8575 4.95 9.1615ZM4.95 11.1615C4.695 11.6585 4.161 12 3.544 12H1.456C0.839 12 0.305 11.658 0.05 11.1615C-0.106 10.8575 0.124 10.5 0.478 10.5H4.5225C4.8765 10.5 5.106 10.8575 4.95 11.1615ZM3.25 6.5C4.8715 6.5 6.2155 5.305 6.4575 3.75H10C10.2765 3.75 10.5 3.526 10.5 3.25C10.5 2.974 10.2765 2.75 10 2.75H6.4575C6.2155 1.195 4.8715 0 3.25 0C1.458 0 0 1.458 0 3.25C0 5.042 1.458 6.5 3.25 6.5ZM3.25 1C4.4905 1 5.5 2.0095 5.5 3.25C5.5 4.4905 4.4905 5.5 3.25 5.5C2.0095 5.5 1 4.4905 1 3.25C1 2.0095 2.0095 1 3.25 1Z" fill="white"/>
</svg>
