<svg width="50" height="50" viewBox="0 0 50 50" fill="none" xmlns="http://www.w3.org/2000/svg">
<path d="M0 10C0 4.47715 4.47715 0 10 0H40C45.5229 0 50 4.47715 50 10V40C50 45.5229 45.5229 50 40 50H10C4.47715 50 0 45.5229 0 40V10Z" fill="#FF5900"/>
<path d="M38.9167 24.9792C38.9167 32.6536 32.6953 38.875 25.0208 38.875C17.3464 38.875 11.125 32.6536 11.125 24.9792C11.125 17.3047 17.3464 11.0833 25.0208 11.0833C32.6953 11.0833 38.9167 17.3047 38.9167 24.9792Z" fill="white"/>
<path d="M38.9167 24.9792C38.9167 32.6536 32.6953 38.875 25.0208 38.875C17.3464 38.875 11.125 32.6536 11.125 24.9792C11.125 17.3047 17.3464 11.0833 25.0208 11.0833C32.6953 11.0833 38.9167 17.3047 38.9167 24.9792Z" fill="white"/>
<path d="M17.5341 29.7087C17.5341 30.1268 17.7009 30.5278 17.9976 30.8235C18.2944 31.1191 18.6969 31.2852 19.1166 31.2852H27.8204C30.4948 31.2852 32.7736 29.6614 33.7073 27.3439L38.0552 28.4751L38.2059 28.5155L38.3658 28.5559L43.6454 29.9296C44.275 29.9296 44.8788 27.0948 45.3239 26.6513C45.7691 26.2078 46.0192 25.6063 46.0192 24.9792C46.0192 24.352 45.7691 23.7505 45.3239 23.307C44.8788 22.8635 44.275 20.0463 43.6454 20.0463L33.7073 22.6144C32.7736 20.2969 30.4948 18.6731 27.8204 18.6731H19.1166C18.6969 18.6731 18.2944 18.8392 17.9976 19.1349C17.7009 19.4305 17.5341 19.8315 17.5341 20.2496C17.5341 20.6677 17.7009 21.0687 17.9976 21.3644C18.2944 21.66 18.6969 21.8261 19.1166 21.8261H25.4467C25.6565 21.8261 25.8578 21.9092 26.0062 22.057C26.1545 22.2048 26.2379 22.4053 26.2379 22.6144C26.2379 22.8235 26.1545 23.0239 26.0062 23.1718C25.8578 23.3196 25.6565 23.4026 25.4467 23.4026H19.1166C18.6969 23.4026 18.2944 23.5687 17.9976 23.8644C17.7009 24.1601 17.5341 24.561 17.5341 24.9792C17.5341 25.3973 17.7009 25.7983 17.9976 26.0939C18.2944 26.3896 18.6969 26.5557 19.1166 26.5557H25.4467C25.6565 26.5557 25.8578 26.6387 26.0062 26.7866C26.1545 26.9344 26.2379 27.1349 26.2379 27.3439C26.2379 27.553 26.1545 27.7535 26.0062 27.9013C25.8578 28.0491 25.6565 28.1322 25.4467 28.1322H19.1166C18.6969 28.1322 18.2944 28.2983 17.9976 28.5939C17.7009 28.8896 17.5341 29.2906 17.5341 29.7087Z" fill="#FF5900"/>
</svg>
