<svg width="12" height="12" viewBox="0 0 12 12" fill="none" xmlns="http://www.w3.org/2000/svg">
<path d="M9.00005 6C7.34307 6 6.00009 7.343 6.00009 9C6.00009 10.657 7.34307 12 9.00005 12C10.657 12 12 10.657 12 9C12 7.343 10.657 6 9.00005 6ZM10.8415 8.856L9.49004 10.163C9.26404 10.386 8.96405 10.4985 8.66355 10.4985C8.36306 10.4985 8.06206 10.386 7.83206 10.1615L7.15507 9.4955C6.95758 9.302 6.95508 8.9855 7.14807 8.7885C7.34107 8.591 7.65757 8.588 7.85506 8.7815L8.53205 9.447C8.60405 9.518 8.72205 9.5165 8.79305 9.446L10.1495 8.134C10.348 7.9435 10.665 7.949 10.8565 8.1485C11.0475 8.3475 11.0405 8.6645 10.8415 8.856ZM4.50011 6C2.84564 6 1.50016 4.6545 1.50016 3C1.50016 1.3455 2.84564 0 4.50011 0C6.15459 0 7.50007 1.3455 7.50007 3C7.50007 4.6545 6.15459 6 4.50011 6ZM4.50011 1.5C3.67313 1.5 3.00014 2.173 3.00014 3C3.00014 3.827 3.67313 4.5 4.50011 4.5C5.3271 4.5 6.00009 3.827 6.00009 3C6.00009 2.173 5.3271 1.5 4.50011 1.5ZM0.750671 12C0.734171 12 0.717171 12 0.700171 11.9985C0.287178 11.9705 -0.0258177 11.6135 0.00168191 11.2C0.14968 8.972 1.94315 7.171 4.17312 7.0115C4.58661 6.982 4.94511 7.2925 4.97511 7.706C5.00511 8.1195 4.69411 8.478 4.28062 8.508C2.79314 8.6145 1.59716 9.8145 1.49866 11.3C1.47216 11.6965 1.14216 12 0.750671 12Z" fill="white"/>
</svg>
