<svg width="28" height="24" viewBox="0 0 28 24" fill="none" xmlns="http://www.w3.org/2000/svg">
<path d="M25.1875 6.5H24.375V2.4375C24.375 1.79103 24.1182 1.17105 23.6611 0.713927C23.204 0.256807 22.584 0 21.9375 0H2.4375C1.79103 0 1.17105 0.256807 0.713927 0.713927C0.256807 1.17105 0 1.79103 0 2.4375V15.4375C0 16.084 0.256807 16.704 0.713927 17.1611C1.17105 17.6182 1.79103 17.875 2.4375 17.875H3.25V19.3375C3.25066 19.5782 3.32248 19.8133 3.45642 20.0133C3.59035 20.2132 3.78043 20.3692 4.00275 20.4614C4.22506 20.5536 4.46968 20.578 4.70584 20.5316C4.942 20.4851 5.15916 20.3699 5.33 20.2004L7.64887 17.875H9.75V18.6875C9.75 19.334 10.0068 19.954 10.4639 20.4111C10.921 20.8682 11.541 21.125 12.1875 21.125H19.9761L22.295 23.4439C22.4651 23.6138 22.6818 23.7296 22.9176 23.7767C23.1534 23.8238 23.3979 23.8001 23.6203 23.7085C23.8426 23.617 24.0329 23.4617 24.1672 23.2622C24.3015 23.0627 24.3738 22.828 24.375 22.5875V21.125H25.1875C25.834 21.125 26.454 20.8682 26.9111 20.4111C27.3682 19.954 27.625 19.334 27.625 18.6875V8.9375C27.625 8.29103 27.3682 7.67105 26.9111 7.21393C26.454 6.75681 25.834 6.5 25.1875 6.5ZM22.75 15.4375C22.75 15.653 22.6644 15.8597 22.512 16.012C22.3597 16.1644 22.153 16.25 21.9375 16.25H7.3125C7.20573 16.2498 7.09997 16.2707 7.00126 16.3114C6.90256 16.3521 6.81284 16.4118 6.73725 16.4872L4.875 18.3511V17.0625C4.875 16.847 4.7894 16.6403 4.63702 16.488C4.48465 16.3356 4.27799 16.25 4.0625 16.25H2.4375C2.22201 16.25 2.01535 16.1644 1.86298 16.012C1.7106 15.8597 1.625 15.653 1.625 15.4375V2.4375C1.625 2.22201 1.7106 2.01535 1.86298 1.86298C2.01535 1.7106 2.22201 1.625 2.4375 1.625H21.9375C22.153 1.625 22.3597 1.7106 22.512 1.86298C22.6644 2.01535 22.75 2.22201 22.75 2.4375V15.4375Z" fill="#676767"/>
<path d="M11.3733 4.06258C11.1578 4.06258 10.9511 4.14818 10.7987 4.30055C10.6464 4.45293 10.5608 4.65959 10.5608 4.87508V6.50008C10.5572 6.78023 10.4803 7.05457 10.3378 7.29576C10.1952 7.53696 9.99196 7.73661 9.74825 7.87483V4.87508C9.74825 4.65959 9.66265 4.45293 9.51028 4.30055C9.35791 4.14818 9.15124 4.06258 8.93575 4.06258C8.72027 4.06258 8.5136 4.14818 8.36123 4.30055C8.20886 4.45293 8.12325 4.65959 8.12325 4.87508V7.87483C7.87955 7.73661 7.6763 7.53696 7.53375 7.29576C7.39119 7.05457 7.31431 6.78023 7.31075 6.50008V4.87508C7.31075 4.65959 7.22515 4.45293 7.07278 4.30055C6.92041 4.14818 6.71374 4.06258 6.49825 4.06258C6.28277 4.06258 6.0761 4.14818 5.92373 4.30055C5.77136 4.45293 5.68575 4.65959 5.68575 4.87508V6.50008C5.68845 7.2185 5.92911 7.91579 6.37012 8.48293C6.81113 9.05007 7.42764 9.4551 8.12325 9.63471V13.0001C8.12325 13.2156 8.20886 13.4222 8.36123 13.5746C8.5136 13.727 8.72027 13.8126 8.93575 13.8126C9.15124 13.8126 9.35791 13.727 9.51028 13.5746C9.66265 13.4222 9.74825 13.2156 9.74825 13.0001V9.63471C10.4439 9.4551 11.0604 9.05007 11.5014 8.48293C11.9424 7.91579 12.1831 7.2185 12.1858 6.50008V4.87508C12.1858 4.65959 12.1002 4.45293 11.9478 4.30055C11.7954 4.14818 11.5887 4.06258 11.3733 4.06258ZM14.9873 4.14871C14.8634 4.08663 14.7257 4.05727 14.5873 4.0634C14.4489 4.06954 14.3143 4.11097 14.1964 4.18376C14.0785 4.25655 13.9812 4.35827 13.9137 4.47927C13.8462 4.60027 13.8108 4.73653 13.8108 4.87508V13.0001C13.8108 13.2156 13.8964 13.4222 14.0487 13.5746C14.2011 13.727 14.4078 13.8126 14.6233 13.8126C14.8387 13.8126 15.0454 13.727 15.1978 13.5746C15.3502 13.4222 15.4358 13.2156 15.4358 13.0001V12.0105L17.7628 11.4271C18.0434 11.351 18.289 11.1797 18.4573 10.9426C18.6257 10.7054 18.7064 10.4172 18.6858 10.1271C18.6879 8.88487 18.3427 7.66679 17.6892 6.61039C17.0356 5.55399 16.0998 4.70134 14.9873 4.14871Z" fill="#676767"/>
</svg>
