<svg width="25" height="24" viewBox="0 0 25 24" fill="none" xmlns="http://www.w3.org/2000/svg">
<path d="M11.7637 3.52934V11.7077L6.09558 17.1472C5.9575 17.2797 5.87992 17.4595 5.87992 17.647C5.87992 17.8344 5.9575 18.0142 6.09558 18.1467C6.23366 18.2793 6.42093 18.3537 6.61621 18.3537C6.81148 18.3537 6.99876 18.2793 7.13683 18.1467L13.0196 12.4997C13.0879 12.434 13.142 12.3561 13.1788 12.2703C13.2157 12.1846 13.2345 12.0927 13.2344 11.9999V3.52934C13.2344 3.34213 13.1569 3.16258 13.019 3.0302C12.8811 2.89783 12.694 2.82346 12.499 2.82346C12.304 2.82346 12.117 2.89783 11.979 3.0302C11.8411 3.16258 11.7637 3.34213 11.7637 3.52934ZM24.2646 16.9411H15.4404C15.2454 16.9411 15.0584 17.0154 14.9205 17.1478C14.7825 17.2802 14.7051 17.4598 14.7051 17.647C14.7051 17.8342 14.7825 18.0137 14.9205 18.1461C15.0584 18.2785 15.2454 18.3528 15.4404 18.3528H24.2646C24.4597 18.3528 24.6467 18.2785 24.7846 18.1461C24.9225 18.0137 25 17.8342 25 17.647C25 17.4598 24.9225 17.2802 24.7846 17.1478C24.6467 17.0154 24.4597 16.9411 24.2646 16.9411Z" fill="#676767"/>
<path d="M22.7956 2.82356C22.6006 2.82356 22.4136 2.89793 22.2757 3.03031C22.1378 3.16268 22.0603 3.34223 22.0603 3.52944V4.30309C20.8963 2.95326 19.4355 1.86742 17.7827 1.12346C16.13 0.379501 14.3262 -0.00414677 12.5007 3.38025e-05C10.4449 7.66955e-05 8.42081 0.486815 6.60776 1.41713C4.79471 2.34745 3.24867 3.69263 2.10657 5.33351C0.964471 6.9744 0.261577 8.86034 0.0601509 10.8243C-0.141275 12.7882 0.164984 14.7695 0.951798 16.5927C1.73861 18.4159 2.9817 20.0247 4.57093 21.2765C6.16017 22.5284 8.04651 23.3847 10.0629 23.7696C12.0792 24.1544 14.1633 24.056 16.1306 23.4831C18.0978 22.9101 19.8875 21.8802 21.3411 20.4847C21.4796 20.3516 21.5573 20.1711 21.5572 19.983C21.557 19.7949 21.479 19.6146 21.3404 19.4816C21.2017 19.3487 21.0137 19.2741 20.8178 19.2743C20.6218 19.2744 20.4339 19.3492 20.2954 19.4824C18.707 21.0101 16.6701 22.0354 14.4577 22.4208C12.2452 22.8062 9.9629 22.5333 7.91653 21.6387C5.87016 20.7441 4.1575 19.2706 3.00803 17.4154C1.85856 15.5603 1.32719 13.4122 1.48511 11.2591C1.64304 9.10596 2.48272 7.05058 3.89165 5.36836C5.30058 3.68615 7.21145 2.45746 9.36821 1.84693C11.525 1.2364 13.8246 1.2732 15.959 1.95239C18.0933 2.63158 19.9605 3.92072 21.3102 5.64708H19.8542C19.6592 5.64708 19.4722 5.72145 19.3343 5.85383C19.1964 5.98621 19.1189 6.16575 19.1189 6.35296C19.1189 6.54018 19.1964 6.71972 19.3343 6.8521C19.4722 6.98448 19.6592 7.05885 19.8542 7.05885H22.7956C22.9907 7.05885 23.1777 6.98448 23.3156 6.8521C23.4535 6.71972 23.531 6.54018 23.531 6.35296V3.52944C23.531 3.34223 23.4535 3.16268 23.3156 3.03031C23.1777 2.89793 22.9907 2.82356 22.7956 2.82356Z" fill="#676767"/>
<path d="M19.8528 8.47037C19.6578 8.47037 19.4708 8.54474 19.3329 8.67711C19.1949 8.80949 19.1175 8.98904 19.1175 9.17625V9.94425C18.0699 10.09 17.0945 10.5415 16.3234 11.2375C15.5522 11.9335 15.0228 12.8404 14.8068 13.8351C14.7632 14.0404 14.7677 14.2526 14.8201 14.4561C14.8724 14.6595 14.9714 14.8493 15.1097 15.0115C15.2479 15.1737 15.4221 15.3043 15.6196 15.3939C15.817 15.4834 16.0327 15.5296 16.2511 15.5292H23.4575C23.6759 15.5296 23.8916 15.4834 24.089 15.3939C24.2865 15.3043 24.4606 15.1737 24.5989 15.0115C24.7372 14.8493 24.8362 14.6595 24.8885 14.4561C24.9409 14.2526 24.9454 14.0404 24.9018 13.8351C24.6856 12.84 24.1557 11.9328 23.384 11.2368C22.6124 10.5407 21.6362 10.0895 20.5882 9.94425V9.17625C20.5882 8.98904 20.5107 8.80949 20.3728 8.67711C20.2349 8.54474 20.0479 8.47037 19.8528 8.47037Z" fill="#676767"/>
</svg>
