<svg width="12" height="12" viewBox="0 0 12 12" fill="none" xmlns="http://www.w3.org/2000/svg">
<path d="M5 11.5C5 11.7765 4.7765 12 4.5 12H2.5C1.1215 12 0 10.8785 0 9.5V2.5C0 1.1215 1.1215 0 2.5 0H6.5C7.8785 0 9 1.1215 9 2.5V3.5C9 3.7765 8.7765 4 8.5 4C8.2235 4 8 3.7765 8 3.5V2.5C8 1.673 7.327 1 6.5 1H2.5C1.673 1 1 1.673 1 2.5V9.5C1 10.327 1.673 11 2.5 11H4.5C4.7765 11 5 11.2235 5 11.5ZM7 3C7 2.7235 6.7765 2.5 6.5 2.5H2.5C2.2235 2.5 2 2.7235 2 3C2 3.2765 2.2235 3.5 2.5 3.5H6.5C6.7765 3.5 7 3.2765 7 3ZM5 5.5C5 5.2235 4.7765 5 4.5 5H2.5C2.2235 5 2 5.2235 2 5.5C2 5.7765 2.2235 6 2.5 6H4.5C4.7765 6 5 5.7765 5 5.5ZM2.5 7.5C2.2235 7.5 2 7.7235 2 8C2 8.2765 2.2235 8.5 2.5 8.5H3.5C3.7765 8.5 4 8.2765 4 8C4 7.7235 3.7765 7.5 3.5 7.5H2.5ZM12 8.5C12 10.4295 10.4295 12 8.5 12C6.5705 12 5 10.4295 5 8.5C5 6.5705 6.5705 5 8.5 5C10.4295 5 12 6.5705 12 8.5ZM11 8.5C11 7.1215 9.8785 6 8.5 6C7.1215 6 6 7.1215 6 8.5C6 9.8785 7.1215 11 8.5 11C9.8785 11 11 9.8785 11 8.5ZM9.404 7.8795L8.2925 8.9465C8.2205 9.017 8.103 9.0185 8.0315 8.9475L7.466 8.3935C7.268 8.1995 6.952 8.2025 6.759 8.4005C6.5655 8.598 6.5685 8.914 6.766 9.1075L7.332 9.662C7.562 9.8865 7.863 9.999 8.1635 9.999C8.464 9.999 8.764 9.8865 8.99 9.6635L10.0965 8.6015C10.2955 8.41 10.302 8.0935 10.111 7.8945C9.9195 7.6945 9.6025 7.689 9.404 7.88V7.8795Z" fill="white"/>
</svg>
