<svg width="19" height="22" viewBox="0 0 19 22" fill="none" xmlns="http://www.w3.org/2000/svg">
<path d="M17.4167 3.66667H14.575C14.3622 2.63213 13.7993 1.70257 12.9811 1.03466C12.163 0.366749 11.1395 0.00133331 10.0833 0H8.25C7.19381 0.00133331 6.17038 0.366749 5.35219 1.03466C4.534 1.70257 3.97109 2.63213 3.75833 3.66667H0.916667C0.673552 3.66667 0.440394 3.76324 0.268485 3.93515C0.0965771 4.10706 0 4.34022 0 4.58333C0 4.82645 0.0965771 5.05961 0.268485 5.23151C0.440394 5.40342 0.673552 5.5 0.916667 5.5H1.83333V17.4167C1.83479 18.6318 2.31814 19.7967 3.17737 20.656C4.03659 21.5152 5.20154 21.9985 6.41667 22H11.9167C13.1318 21.9985 14.2967 21.5152 15.156 20.656C16.0152 19.7967 16.4985 18.6318 16.5 17.4167V5.5H17.4167C17.6598 5.5 17.8929 5.40342 18.0648 5.23151C18.2368 5.05961 18.3333 4.82645 18.3333 4.58333C18.3333 4.34022 18.2368 4.10706 18.0648 3.93515C17.8929 3.76324 17.6598 3.66667 17.4167 3.66667ZM8.25 1.83333H10.0833C10.6519 1.83403 11.2064 2.01059 11.6706 2.33882C12.1349 2.66705 12.4863 3.13087 12.6766 3.66667H5.65675C5.84703 3.13087 6.19841 2.66705 6.66269 2.33882C7.12697 2.01059 7.68142 1.83403 8.25 1.83333ZM14.6667 17.4167C14.6667 18.146 14.3769 18.8455 13.8612 19.3612C13.3455 19.8769 12.646 20.1667 11.9167 20.1667H6.41667C5.68732 20.1667 4.98785 19.8769 4.47212 19.3612C3.9564 18.8455 3.66667 18.146 3.66667 17.4167V5.5H14.6667V17.4167Z" fill="#FF2626"/>
<path d="M7.33333 16.5C7.57645 16.5 7.80961 16.4034 7.98151 16.2315C8.15342 16.0596 8.25 15.8264 8.25 15.5833V10.0833C8.25 9.84022 8.15342 9.60706 7.98151 9.43515C7.80961 9.26324 7.57645 9.16667 7.33333 9.16667C7.09022 9.16667 6.85706 9.26324 6.68515 9.43515C6.51324 9.60706 6.41667 9.84022 6.41667 10.0833V15.5833C6.41667 15.8264 6.51324 16.0596 6.68515 16.2315C6.85706 16.4034 7.09022 16.5 7.33333 16.5Z" fill="#FF2626"/>
<path d="M11 16.5C11.2431 16.5 11.4763 16.4034 11.6482 16.2315C11.8201 16.0596 11.9167 15.8264 11.9167 15.5833V10.0833C11.9167 9.84022 11.8201 9.60706 11.6482 9.43515C11.4763 9.26324 11.2431 9.16667 11 9.16667C10.7569 9.16667 10.5237 9.26324 10.3518 9.43515C10.1799 9.60706 10.0833 9.84022 10.0833 10.0833V15.5833C10.0833 15.8264 10.1799 16.0596 10.3518 16.2315C10.5237 16.4034 10.7569 16.5 11 16.5Z" fill="#FF2626"/>
</svg>
