<svg width="14" height="14" viewBox="0 0 14 14" fill="none" xmlns="http://www.w3.org/2000/svg">
<path d="M3.20833 12.25C2.82156 12.25 2.45063 12.0964 2.17714 11.8229C1.90365 11.5494 1.75 11.1784 1.75 10.7917V0.875C1.75 0.642936 1.65781 0.420376 1.49372 0.256282C1.32962 0.0921872 1.10706 0 0.875 0C0.642936 0 0.420376 0.0921872 0.256282 0.256282C0.0921872 0.420376 0 0.642936 0 0.875V10.7917C0 11.6426 0.33802 12.4586 0.939699 13.0603C1.54138 13.662 2.35743 14 3.20833 14H13.125C13.3571 14 13.5796 13.9078 13.7437 13.7437C13.9078 13.5796 14 13.3571 14 13.125C14 12.8929 13.9078 12.6704 13.7437 12.5063C13.5796 12.3422 13.3571 12.25 13.125 12.25H3.20833Z" fill="#FE5959"/>
<path d="M11.375 10.5C11.6071 10.5 11.8296 10.4078 11.9937 10.2437C12.1578 10.0796 12.25 9.85706 12.25 9.625V6.125C12.25 5.89294 12.1578 5.67038 11.9937 5.50628C11.8296 5.34219 11.6071 5.25 11.375 5.25C11.1429 5.25 10.9204 5.34219 10.7563 5.50628C10.5922 5.67038 10.5 5.89294 10.5 6.125V9.625C10.5 9.85706 10.5922 10.0796 10.7563 10.2437C10.9204 10.4078 11.1429 10.5 11.375 10.5Z" fill="#FE5959"/>
<path d="M4.375 10.5C4.60706 10.5 4.82962 10.4078 4.99372 10.2437C5.15781 10.0796 5.25 9.85706 5.25 9.625V6.125C5.25 5.89294 5.15781 5.67038 4.99372 5.50628C4.82962 5.34219 4.60706 5.25 4.375 5.25C4.14294 5.25 3.92038 5.34219 3.75628 5.50628C3.59219 5.67038 3.5 5.89294 3.5 6.125V9.625C3.5 9.85706 3.59219 10.0796 3.75628 10.2437C3.92038 10.4078 4.14294 10.5 4.375 10.5Z" fill="#FE5959"/>
<path d="M7.875 10.5C8.10706 10.5 8.32962 10.4078 8.49372 10.2437C8.65781 10.0796 8.75 9.85706 8.75 9.625V3.20833C8.75 2.97627 8.65781 2.75371 8.49372 2.58961C8.32962 2.42552 8.10706 2.33333 7.875 2.33333C7.64294 2.33333 7.42038 2.42552 7.25628 2.58961C7.09219 2.75371 7 2.97627 7 3.20833V9.625C7 9.85706 7.09219 10.0796 7.25628 10.2437C7.42038 10.4078 7.64294 10.5 7.875 10.5Z" fill="#FE5959"/>
</svg>
