<svg width="22" height="22" viewBox="0 0 22 22" fill="none" xmlns="http://www.w3.org/2000/svg">
<path fill-rule="evenodd" clip-rule="evenodd" d="M18.7055 3.19733C16.6467 1.13667 13.9095 0.000916667 10.9936 0C4.98483 0 0.0944167 4.8895 0.0916667 10.901C0.09075 12.8223 0.593083 14.6978 1.54733 16.3515L0 22L5.77867 20.4838C7.37092 21.3528 9.16392 21.8103 10.9881 21.8112H10.9927C17.0005 21.8112 21.8918 16.9207 21.8946 10.9093C21.8964 7.997 20.7634 5.25708 18.7055 3.19733ZM10.9936 19.9696H10.9899C9.36375 19.9696 7.76967 19.5323 6.37817 18.7064L6.04725 18.5103L2.618 19.4095L3.53375 16.0655L3.31833 15.7227C2.41083 14.2798 1.93233 12.6124 1.93325 10.901C1.93508 5.90517 6.0005 1.84067 10.9982 1.84067C13.4182 1.84067 15.6933 2.78483 17.4038 4.49717C19.1143 6.21042 20.0557 8.4865 20.0548 10.9074C20.0521 15.9051 15.9876 19.9696 10.9936 19.9696ZM15.9637 13.1835C15.6915 13.0469 14.3522 12.3878 14.102 12.2971C13.8527 12.2063 13.6712 12.1605 13.4887 12.4327C13.3063 12.705 12.7857 13.3192 12.6262 13.5016C12.4676 13.6831 12.3081 13.706 12.0358 13.5694C11.7636 13.4328 10.8854 13.1459 9.845 12.2173C9.03558 11.495 8.48833 10.6031 8.32975 10.3299C8.17117 10.0568 8.31325 9.91008 8.44892 9.77442C8.57175 9.6525 8.72117 9.45633 8.85775 9.29683C8.99525 9.13917 9.04017 9.0255 9.13183 8.84308C9.22258 8.66158 9.17767 8.50208 9.10892 8.3655C9.04017 8.22983 8.49567 6.88875 8.26925 6.34333C8.04833 5.81167 7.82375 5.88408 7.656 5.87583C7.49742 5.86758 7.31592 5.86667 7.1335 5.86667C6.952 5.86667 6.65683 5.9345 6.4075 6.20767C6.15817 6.48083 5.45417 7.13992 5.45417 8.48008C5.45417 9.82117 6.43042 11.1164 6.56608 11.2979C6.70175 11.4794 8.4865 14.2313 11.2191 15.411C11.869 15.6915 12.3768 15.8593 12.7719 15.9848C13.4246 16.192 14.0186 16.1627 14.4879 16.093C15.0113 16.0151 16.0994 15.4339 16.3267 14.7978C16.5541 14.1616 16.5541 13.6152 16.4853 13.5025C16.4175 13.3879 16.236 13.3201 15.9637 13.1835Z" fill="#1C8050"/>
</svg>
